<svg xmlns="http://www.w3.org/2000/svg" viewBox="0 0 100 100" width="60" height="60">
  <rect width="100" height="100" fill="#4A90E2" rx="15"/>
  <text x="50" y="60" font-family="Arial, sans-serif" font-size="45" font-weight="bold" fill="white" text-anchor="middle">1H</text>
  <path d="M 35 25 L 45 25 L 45 35 L 55 35 L 55 25 L 65 25 L 65 35 L 75 35 L 75 45 L 65 45 L 65 55 L 75 55 L 75 65 L 65 65 L 65 75 L 55 75 L 55 65 L 45 65 L 45 75 L 35 75 L 35 65 L 25 65 L 25 55 L 35 55 L 35 45 L 25 45 L 25 35 L 35 35 Z M 45 45 L 45 55 L 55 55 L 55 45 Z" fill="white" opacity="0.3"/>
</svg>
